<?xml version="1.0" encoding="utf-8"?>
<!-- Generator: Adobe Illustrator 19.0.0, SVG Export Plug-In . SVG Version: 6.00 Build 0)  -->
<svg version="1.1" id="svg" xmlns="http://www.w3.org/2000/svg" xmlns:xlink="http://www.w3.org/1999/xlink" x="0px" y="0px"
	 viewBox="-102 269.1 399.7 247.3" style="enable-background:new -102 269.1 399.7 247.3;" xml:space="preserve">
<style type="text/css">
	.st0{fill:#FFFFFF;}
	.st1{fill:#54C3F0;}
</style>
<g id="svgg">
	<path id="path0" class="st0" d="M147.7,371.1c10.4,0.1,27.4,0.1,37.8,0s1.9-0.1-18.9-0.1S137.3,371,147.7,371.1"/>
	<path id="path1" class="st1" d="M-88.1,270c-9.4,2.1-13.9,7-13.9,15.2v4.6l2.3,4.6c1.3,2.6,3.3,5.8,4.6,7.4
		c1.2,1.5,2.8,3.4,3.4,4.2c0.6,0.8,1.3,1.7,1.6,2s1,1.3,1.7,2.1c0.6,0.9,1.9,2.4,2.9,3.5c0.9,1,1.7,2,1.7,2.2c0,0.2,1,1.4,2.2,2.7
		s2.2,2.5,2.2,2.6c0,0.2,1.8,2.5,7,8.8c0.3,0.4,1.5,1.9,2.7,3.4s2.5,3.1,2.9,3.6c0.4,0.4,1.2,1.5,1.8,2.3c0.6,0.8,2.5,3.2,4.3,5.4
		c1.8,2.1,3.9,4.8,4.8,6c0.9,1.2,2.1,2.7,2.8,3.5c0.7,0.8,1.6,1.9,2,2.5s1.4,1.8,2.1,2.6c0.7,0.8,1.7,2,2.2,2.7
		c0.8,1.1,3.2,4.1,5,6.3c1.6,1.9,4,5,5.6,7.1c1,1.3,1.9,2.3,2.1,2.3s0.4,0.2,0.4,0.5c0,0.3,1.1,1.7,2.4,3.2s2.4,2.8,2.4,3
		c0,0.2,1,1.4,2.2,2.7s2.2,2.5,2.2,2.7c0,0.2,1.4,2,3.1,4c3.4,4.1,8,9.8,10,12.4c0.7,0.9,1.6,2.1,2.1,2.5c0.4,0.5,1.3,1.6,1.9,2.4
		c0.6,0.8,1.2,1.6,1.4,1.7c0.5,0.5,8.3,10.2,9,11.3c0.5,0.7,1.3,1.7,1.9,2.3c0.6,0.6,1.5,1.8,2.1,2.6c0.6,0.8,1.2,1.6,1.3,1.7
		c0.3,0.3,6.4,7.8,8.3,10.3c1,1.2,2.4,2.9,3.1,3.8c0.7,0.8,1.4,1.6,1.4,1.8c0,0.2,0.9,1.3,2,2.5c1.1,1.2,2,2.3,2,2.5
		c0,0.2,0.8,1.2,1.7,2.2c0.9,1,3.9,4.6,6.5,8s4.9,6.1,5,6.1c0.2,0,0.5,0.4,0.7,0.9s1.3,1.9,2.4,3.2c3.4,3.9,4.7,5.6,6.1,7.5
		c1.2,1.6,3.3,4.3,10.7,13.4c0.7,0.9,2,2.6,3,3.8c0.9,1.2,2,2.5,2.4,2.9s1.2,1.4,1.8,2.2c13.1,17.6,24.5,19.6,28.2,5l0.9-3.5V404
		v-99.4l-0.9-4c-0.9-4-3.9-10.7-5.8-13.2c-3.8-4.8-6-7.4-6.2-7.4s-0.9-0.5-1.7-1.2c-4.9-4.3-11.9-7.6-18.8-9
		C55.8,268.8-83.6,269-88.1,270 M134.7,269.6c-15.4,2.6-28.7,14.9-32.9,30.4l-1,3.8l-0.1,98.2c-0.1,105.2-0.2,100.8,1.8,107.6
		c3,10.3,14.2,8.8,23.7-3.1c0.8-1,1.6-2,1.9-2.3c0.6-0.6,5.1-6.3,6.3-7.8c0.4-0.6,2.4-3,4.3-5.4s3.6-4.5,3.8-4.7
		c0.2-0.2,1.5-1.9,2.9-3.6c1.4-1.8,3.1-3.9,3.8-4.8c0.7-0.9,1.5-1.8,1.9-2.2s0.7-0.8,0.7-1c0-0.2,0.6-1,1.4-1.8
		c0.8-0.7,1.9-2.1,2.5-3s1.4-1.9,1.7-2.3c0.7-0.8,0.7-0.7,5.4-6.7c2-2.5,4.3-5.4,5.2-6.5c0.9-1,2-2.5,2.4-3.1c0.4-0.7,0.9-1.2,1-1.2
		c0.2,0,1.3-1.3,2.5-3c1.2-1.6,2.5-3.2,2.8-3.5c0.3-0.3,1-1.2,1.7-2.1c0.7-0.9,1.3-1.7,1.4-1.8c0.7-0.6,3.9-4.8,4.5-5.6
		c0.3-0.6,1.2-1.5,1.8-2.2c0.7-0.7,1.6-1.8,2-2.5c0.4-0.7,1.4-2,2.2-2.8c0.8-0.8,1.9-2.2,2.6-3.1c0.7-0.9,1.5-1.9,1.8-2.2
		c0.3-0.4,1.1-1.3,1.8-2.2c0.7-0.9,2.1-2.6,3.2-4c2.3-2.8,3.2-3.9,6.3-7.9c1.2-1.6,2.7-3.4,3.2-4s1.3-1.5,1.7-2.1
		c0.4-0.6,1.1-1.5,1.5-2s1.2-1.5,1.8-2.3s1.2-1.6,1.5-1.9c0.2-0.2,1.2-1.5,2.2-2.7c1-1.2,2.8-3.5,4-4.9c1.2-1.5,2.6-3.2,3.1-3.9
		c0.5-0.7,1.6-2,2.5-3s1.6-2,1.6-2.3c0-0.3,0.1-0.5,0.3-0.5s1-0.9,1.9-2c0.9-1.1,1.8-2.2,2-2.5c0.2-0.2,0.9-1.2,1.6-2.1
		c0.7-0.9,1.4-1.9,1.7-2.2s1.2-1.5,2-2.6s1.9-2.4,2.4-2.8s1.2-1.3,1.7-2.1c0.4-0.7,1.5-2.1,2.4-3c0.9-1,1.6-1.9,1.6-2
		s0.4-0.7,0.8-1.2c0.5-0.5,1.3-1.6,1.9-2.3c0.6-0.7,1.2-1.6,1.5-1.8c0.2-0.2,1.4-1.7,2.6-3.2c1.2-1.5,2.4-2.9,2.7-3.1
		c0.3-0.2,0.5-0.5,0.5-0.7c0-0.2,0.6-1.1,1.4-1.9c0.8-0.9,2.2-2.5,3.1-3.8s3.2-4.1,5-6.3c1.8-2.3,3.5-4.4,3.8-4.7
		c0.3-0.3,0.9-1.2,1.5-1.8c0.6-0.7,1.5-1.9,2.2-2.7c0.7-0.8,1.8-2.3,2.6-3.2s1.8-2.2,2.2-2.8s1.4-1.9,2.2-2.8
		c0.8-0.9,1.9-2.4,2.6-3.2c0.6-0.9,1.3-1.7,1.4-1.8c0.6-0.5,8.4-10.5,8.4-10.8c0-0.2,0.6-1.4,1.4-2.7c6.6-11,2.7-21.2-9.8-25.1
		C281.8,269.4,139.8,268.8,134.7,269.6 M-62.2,283.8c2.2,0.7,2.9,1,6.5,2.5c1,0.5,2,0.8,2.2,0.8c1.7,0,14.9,10.5,14.9,11.9
		c0,0.3,0.1,0.5,0.3,0.5c0.2,0,1.1,1.2,2.1,2.6s1.9,2.6,2.1,2.6s0.3,0.2,0.3,0.4c0,0.5,2,3.6,2.9,4.4c0.3,0.3,1.2,1.5,2,2.7
		c3.1,4.7,6.7,9.7,7.9,11c0.7,0.8,1.2,1.5,1.2,1.7s0.9,1.5,2,2.9c1.1,1.4,2,2.7,2,2.9c0,0.2,0.6,1.1,1.3,2c0.7,0.9,2.4,3.2,3.7,5
		c1.3,1.9,2.7,3.8,3.1,4.2s1,1.3,1.3,1.9c0.6,1.1,2.8,4.3,6.4,9.1c1.1,1.4,2.2,3,2.5,3.7c0.3,0.6,1.2,1.8,1.9,2.7
		c0.7,0.9,2.2,2.9,3.3,4.5c1.1,1.6,2.4,3.4,2.8,3.9c0.5,0.5,0.8,1,0.8,1.1c0,0.3,2.5,3.9,3,4.4c0.3,0.2,2.3,3.1,4.6,6.4
		c2.3,3.3,4.3,6.2,4.6,6.4c0.3,0.2,1,1.3,1.6,2.4s1.5,2.4,2,2.9s1.3,1.6,1.8,2.4c1,1.6,4.3,6.1,4.7,6.4c0.1,0.1,0.5,0.7,0.8,1.2
		c0.3,0.6,1.1,1.6,1.7,2.4c0.6,0.8,1.6,2.2,2.2,3.1c5.3,9,12.9,10.9,13.9,3.5c0.2-1.1,0.4-2.4,0.4-2.9c0.1-0.4,0.2-24.8,0.2-54.2
		c0-54.8,0-53.7,1.4-58.8c4.3-15.7,16.8-15.6,21.4,0.2l1,3.6l0.1,85.8c0.1,63.1,0,86.4-0.3,88.2c-1.7,8.8-6.6,8.1-14.6-2.2
		c-1.3-1.7-3.9-4.9-5.6-7.1c-4.2-5.2-3.9-4.9-4.5-5.5c-0.3-0.3-0.5-0.7-0.5-0.8s-0.7-1-1.6-2s-1.9-2.2-2.3-2.8
		c-0.4-0.5-2.1-2.7-3.9-4.9c-1.8-2.1-4.1-5-5.1-6.3c-1.1-1.3-2.6-3.2-3.4-4.2s-1.6-2-1.8-2.4c-0.2-0.4-0.5-0.8-0.6-0.9
		s-1.1-1.3-2.1-2.6s-2.1-2.7-2.4-3c-0.7-0.7-4.1-5-5.4-6.8c-0.5-0.7-1.5-1.9-2.1-2.5c-0.6-0.7-1.1-1.4-1.1-1.5
		c0-0.2-0.5-0.8-1.1-1.4c-1.4-1.4-4.1-4.7-4.1-5c0-0.1-0.7-1-1.6-1.9s-1.6-1.8-1.6-2.1c0-0.2-0.8-1.2-1.7-2.3
		c-1.9-2.1-2.4-2.7-5.3-6.4c-1.1-1.4-2.2-2.8-2.4-3c-1.6-1.8-5-6-5-6.3c0-0.1-0.8-1.1-1.8-2.2c-1-1-1.8-2.1-1.8-2.4
		c0-0.3-0.1-0.5-0.3-0.6c-0.2-0.1-1.8-2-3.6-4.3c-1.8-2.3-3.6-4.4-4.1-4.7c-0.4-0.3-0.8-0.8-0.8-1.1s-0.1-0.6-0.3-0.6
		c-0.2,0-0.6-0.5-1-1.1c-0.4-0.6-1.2-1.6-1.8-2.3c-1.2-1.3-6-7.3-11.5-14.4c-0.7-0.9-1.5-1.9-1.9-2.3c-0.4-0.4-0.7-0.9-0.7-1.1
		c0-0.2-0.1,0-0.3,0s-0.9-0.8-1.6-1.7c-0.7-1-1.8-2.3-2.5-3s-1.2-1.5-1.2-1.7c0-0.2-0.4-0.8-0.9-1.3c-1.1-1.1-7-8.4-9.2-11.3
		c-0.8-1.1-2.1-2.7-2.9-3.6c-2.8-3.3-5.4-6.5-5.4-6.8c0-0.1-0.3-0.6-0.6-0.9c-2.7-2.9-4.2-4.8-4.2-5.2c0-0.3-0.1-0.5-0.3-0.6
		c-0.3-0.1-2-2.1-3.9-4.5c-0.7-0.8-1.6-2-2.1-2.6s-1.9-2.3-3-3.9c-1.2-1.5-2.5-3.1-3-3.6c-0.5-0.4-0.9-1-0.9-1.3
		c0-0.3-0.3-0.7-0.6-0.8c-0.3-0.1-0.5-0.4-0.4-0.6c0.1-0.2,0-0.4-0.2-0.4c-0.8,0-3.2-5.5-3.2-7.4C-79.4,284.1-71.3,281.1-62.2,283.8
		 M267.3,287.4c5.3,1.6,5,5.1-1.2,11.6c-6.6,7-11,11.4-11.3,11.4c-0.2,0-1.1,0.7-1.9,1.6c-2,2-10.6,6.4-13.6,7.1
		c-0.2,0-1.9,0.5-3.8,0.9c-5.4,1.3-104,1.3-108,0c-4.2-1.4-9.1-5.9-9.8-8.9c-0.1-0.3-0.2-0.7-0.3-1.1c-1.7-4.5-1.3-11.2,1-14.4
		c0.4-0.5,0.7-1.2,0.7-1.4c0-1.6,5-5.5,8.5-6.7C130.4,286.5,263.9,286.4,267.3,287.4 M206.8,371.8c2.3,1.2,1.9,5.6-0.6,6.4
		c-0.4,0.1-1.5,1-2.5,1.9s-2.2,1.9-2.8,2.3c-0.6,0.4-2,1.5-3.2,2.6s-2.6,2.2-3.1,2.4c-0.5,0.3-1.6,1.1-2.6,2
		c-4.3,3.6-14.3,7.9-21.6,9.1c-2.7,0.5-42.2,0.4-43.8-0.1c-0.5-0.1-1.6-0.7-2.4-1.2s-1.6-0.9-1.7-0.9c-1.2,0-4.5-4.5-5.7-7.7
		c-1.3-3.6-0.4-8.3,2.3-11.6c0.3-0.4,1-1.3,1.6-1.9c1.1-1.3,3.7-2.8,6.6-3.6C131,370.3,204.8,370.8,206.8,371.8"/>
</g>
</svg>
