<?xml version="1.0" encoding="utf-8"?>
<svg version="1.1" id="VFix-Logo" xmlns="http://www.w3.org/2000/svg" xmlns:xlink="http://www.w3.org/1999/xlink" x="0px" y="0px"
	 viewBox="0 0 417.2 130.4" style="enable-background:new 0 0 417.2 130.4;" xml:space="preserve">
<style type="text/css">
	.st1{fill:#0099FF;}
	.st2{font-family:'HelveticaNeue-Light';}
	.st2{font-family: "Helvetica Neue", Helvetica, "Myriad Set Pro", Arial, sans-serif;}
	.st3{font-size:98.65px;}
	.st4{letter-spacing:5;}
</style>
<title>VFix</title>
<g>
	<path d="M96.6,106.4c0,14.6,7.5,17.3,16.6,5.8l66-82.4c9.1-11.4,4.7-20.8-10-20.8h-46c-14.7,0-26.6,11.9-26.6,26.6
		c0,0,0,0,0,0L96.6,106.4z" fill="#FFFFFF"/>
	<path d="M93.4,106.4c0,14.6-7.5,17.3-16.6,5.8l-66-82.4C1.6,18.4,6.1,9,20.8,9h46c14.7,0,26.6,11.9,26.6,26.6
		c0,0,0,0,0,0V106.4z" fill="#FFFFFF"/>
	<path class="st1" d="M166.8,24.9c3.7-3.7,1.9-6.7-4-6.7h-42.9c-5.9,0-10.7,3-10.7,6.7s4.8,6.7,10.7,6.7h29.4
		C155.2,31.6,163.1,28.6,166.8,24.9z"/>
	<path class="st1" d="M140,62.5c4.1-2.9,3.1-5.2-2.2-5.2H116c-5.3,0-9.6,2.4-9.6,5.2c0,2.8,4.3,5.2,9.6,5.2h7
		C129,67.5,134.9,65.7,140,62.5z"/>
	<path class="st1" d="M80,18.6c-3,0-5.5,6.3-5.5,14v35.7c0,7.7-3.7,8.9-8.1,2.6L37.2,30c-4.4-6.2-12-11.4-16.8-11.4s-4.8,4.9,0,11
		l56.2,70.2c4.8,6,8.8,4.6,8.8-3.1v-64C85.4,24.9,83,18.6,80,18.6z"/>
	<text transform="matrix(1 0 0 1 202.49 96.36)" class="st0 st2 st3 st4" fill="#FFFFFF">VFIX</text>
</g>
</svg>