<svg xmlns="http://www.w3.org/2000/svg" viewBox="0 0 417.16 130.45"><defs><style>.cls-1,.cls-3{fill:#fff;}.cls-2{fill:none;}.cls-3{isolation:isolate;font-size:98.65px;font-family:HelveticaNeue-Light, Helvetica Neue;font-weight:300;letter-spacing:0.06em;}</style></defs><title>Asset 2</title><g id="Layer_2" data-name="Layer 2"><g id="Layer_1-2" data-name="Layer 1"><g id="Layer_1-2-2" data-name="Layer 1-2"><path class="cls-1" d="M90.58,97.4c0,14.6,7.5,17.3,16.6,5.8l66-82.4c9.1-11.4,4.7-20.8-10-20.8h-46a26.59,26.59,0,0,0-26.6,26.6Z"/><path class="cls-1" d="M87.38,97.4c0,14.6-7.5,17.3-16.6,5.8l-66-82.4C-4.42,9.4.08,0,14.78,0h46a26.59,26.59,0,0,1,26.6,26.6Z"/><path class="cls-2" d="M160.78,15.9c3.7-3.7,1.9-6.7-4-6.7h-42.9c-5.9,0-10.7,3-10.7,6.7s4.8,6.7,10.7,6.7h29.4C149.18,22.6,157.08,19.6,160.78,15.9Z"/><path class="cls-2" d="M134,53.5c4.1-2.9,3.1-5.2-2.2-5.2H110c-5.3,0-9.6,2.4-9.6,5.2s4.3,5.2,9.6,5.2h7A33.61,33.61,0,0,0,134,53.5Z"/><path class="cls-2" d="M74,9.6c-3,0-5.5,6.3-5.5,14V59.3c0,7.7-3.7,8.9-8.1,2.6L31.18,21c-4.4-6.2-12-11.4-16.8-11.4s-4.8,4.9,0,11l56.2,70.2c4.8,6,8.8,4.6,8.8-3.1v-64C79.38,15.9,77,9.6,74,9.6Z"/><text class="cls-3" transform="translate(203.49 100.36)">VFIX</text></g></g></g></svg>