<?xml version="1.0" standalone="no"?>
<!DOCTYPE svg PUBLIC "-//W3C//DTD SVG 20010904//EN"
 "http://www.w3.org/TR/2001/REC-SVG-20010904/DTD/svg10.dtd">
<svg version="1.0" xmlns="http://www.w3.org/2000/svg"
 width="16.000000pt" height="16.000000pt" viewBox="0 0 16.000000 16.000000"
 preserveAspectRatio="xMidYMid meet">
<metadata>
Created by potrace 1.11, written by Peter Selinger 2001-2013
</metadata>
<g transform="translate(0.000000,16.000000) scale(0.007175,-0.007175)"
fill="#000000" stroke="none">
<path d="M66 1699 c-21 -16 -26 -29 -26 -63 0 -23 8 -53 17 -66 43 -62 908
-1138 932 -1157 34 -30 75 -30 95 -1 14 20 16 92 16 581 0 481 -2 563 -16 595
-19 47 -58 88 -106 113 -35 18 -64 19 -461 19 -414 0 -425 0 -451 -21z m247
-102 c37 -22 83 -80 277 -352 194 -272 236 -325 256 -325 13 0 25 1 26 3 1 1
4 152 7 334 6 326 6 333 28 355 31 31 68 13 82 -39 7 -24 11 -206 11 -499 0
-497 -2 -517 -47 -477 -31 27 -779 965 -786 987 -20 53 65 60 146 13z"/>
<path d="M1255 1703 c-47 -24 -86 -64 -106 -108 -17 -37 -19 -76 -19 -595 0
-426 3 -561 13 -580 17 -34 63 -38 98 -8 23 19 799 982 912 1131 48 63 52 124
11 156 -26 21 -37 21 -453 21 -368 -1 -430 -3 -456 -17z m790 -93 c9 -15 -95
-120 -140 -141 -36 -17 -70 -19 -336 -19 -337 0 -335 0 -346 77 -5 35 -2 45
20 67 l26 26 385 0 c245 0 387 -4 391 -10z m-335 -449 c0 -17 -84 -83 -135
-107 -45 -21 -64 -24 -182 -24 -130 0 -132 0 -152 26 -27 35 -26 59 4 89 l24
25 221 0 c127 0 220 -4 220 -9z"/>
</g>
</svg>
